<?xml version="1.0" standalone="no"?>
<!DOCTYPE svg PUBLIC "-//W3C//DTD SVG 20010904//EN"
 "http://www.w3.org/TR/2001/REC-SVG-20010904/DTD/svg10.dtd">
<svg version="1.0" xmlns="http://www.w3.org/2000/svg"
 width="384.000000pt" height="100.000000pt" viewBox="0 0 384.000000 100.000000"
 preserveAspectRatio="xMidYMid meet">

<g transform="translate(0.000000,100.000000) scale(0.100000,-0.100000)"
fill="#000000" stroke="none">
<path d="M380 994 c-14 -3 -58 -16 -99 -31 -58 -20 -87 -39 -137 -85 -113
-106 -145 -206 -125 -389 11 -96 11 -125 -1 -181 -8 -38 -11 -68 -8 -68 17 0
103 86 121 121 11 22 24 74 29 117 18 141 89 238 209 283 46 17 70 20 136 16
90 -6 134 -22 218 -78 l58 -40 79 43 c44 24 80 46 80 50 0 16 -106 120 -158
154 -88 59 -171 85 -282 89 -52 2 -106 2 -120 -1z m107 -144 c11 -29 10 -30
-17 -30 -27 0 -28 1 -17 30 6 17 14 30 17 30 3 0 11 -13 17 -30z m-90 -42
c-26 -17 -37 -7 -37 30 l0 37 24 -30 c17 -21 21 -32 13 -37z m185 27 c4 -32 2
-34 -17 -29 -11 4 -21 8 -23 9 -4 3 28 55 33 55 2 0 5 -16 7 -35z m101 -33
c-5 -28 -8 -32 -27 -26 -32 10 -32 13 -1 39 17 13 31 22 31 22 1 -1 -1 -17 -3
-35z m-374 -30 c-24 -17 -27 -15 -35 28 l-7 33 31 -23 c31 -23 31 -24 11 -38z
m451 -26 c-8 -23 -13 -25 -30 -16 -26 14 -25 17 8 34 33 17 35 16 22 -18z
m-512 -5 c10 -6 8 -12 -7 -25 -19 -17 -20 -17 -36 14 -16 32 -16 32 7 25 13
-4 29 -11 36 -14z m562 -45 c0 -2 -7 -6 -15 -10 -8 -3 -15 -1 -15 4 0 6 7 10
15 10 8 0 15 -2 15 -4z m-622 -26 c10 0 10 -5 2 -20 -10 -20 -12 -20 -35 -3
-31 23 -32 37 -2 29 12 -3 28 -6 35 -6z m-29 -87 c0 -5 -4 -16 -7 -26 -7 -16
-9 -16 -31 0 -23 16 -23 17 -5 24 25 10 44 11 43 2z m-19 -108 c0 -19 -4 -23
-17 -18 -33 12 -36 16 -18 30 27 19 35 16 35 -12z m-15 -84 c-3 -6 -14 -11
-23 -11 -13 0 -13 2 4 14 21 15 30 14 19 -3z"/>
<path d="M1098 822 c-60 -36 -76 -149 -31 -210 39 -52 141 -64 184 -21 31 31
21 43 -12 15 -59 -50 -128 -26 -149 53 -19 72 9 142 64 161 40 13 77 1 100
-32 16 -22 16 -22 16 17 0 26 -3 35 -9 26 -6 -10 -13 -11 -29 -2 -31 16 -103
13 -134 -7z"/>
<path d="M1353 829 c15 -9 17 -26 17 -129 0 -104 -2 -119 -17 -123 -10 -3 30
-5 88 -6 114 -1 119 1 119 52 0 19 -3 17 -20 -11 -19 -31 -24 -33 -68 -30
l-47 3 -3 122 c-2 109 -1 122 15 126 10 3 -9 5 -42 6 -45 0 -56 -2 -42 -10z"/>
<path d="M1732 823 c-5 -10 -28 -68 -52 -130 -26 -70 -49 -114 -59 -116 -9 -3
4 -5 29 -6 29 0 40 2 31 8 -10 7 -11 16 -4 37 9 27 14 29 65 32 55 3 56 2 67
-29 14 -40 14 -37 -6 -42 -10 -3 6 -5 36 -6 45 -1 52 1 39 12 -8 6 -36 67 -62
135 -47 120 -65 143 -84 105z m52 -140 c7 -22 4 -23 -38 -23 -25 0 -46 4 -46
10 0 5 10 35 21 67 l22 57 17 -45 c10 -24 21 -54 24 -66z"/>
<path d="M1963 830 c15 -9 17 -27 17 -130 0 -104 -2 -119 -17 -123 -10 -3 9
-5 42 -5 45 -1 54 1 38 8 -19 8 -23 17 -23 55 0 44 1 45 31 45 25 0 32 -6 45
-37 24 -62 29 -68 65 -71 30 -3 32 -2 18 10 -9 7 -26 33 -36 58 -20 45 -20 45
1 61 15 12 21 28 21 58 0 64 -19 75 -128 79 -69 2 -88 0 -74 -8z m145 -22 c7
-7 12 -28 12 -48 0 -46 -15 -60 -62 -60 l-38 0 0 60 0 60 38 0 c21 0 43 -5 50
-12z"/>
<path d="M2263 829 c15 -9 17 -26 17 -129 0 -104 -2 -119 -17 -123 -10 -3 30
-5 89 -6 l106 -1 7 31 c8 36 0 50 -10 17 -10 -32 -23 -38 -77 -38 l-48 0 0 60
0 60 39 0 c29 0 41 -5 44 -17 3 -10 5 2 5 27 0 25 -2 37 -5 28 -3 -13 -15 -18
-44 -18 l-39 0 0 50 0 50 54 0 c50 0 55 -2 64 -27 10 -28 10 -27 11 10 l1 37
-107 0 c-78 -1 -103 -3 -90 -11z"/>
<path d="M2543 833 c15 -4 17 -19 17 -128 0 -109 -2 -124 -17 -128 -10 -3 2
-5 27 -6 35 0 41 2 28 10 -15 8 -18 25 -18 111 0 56 4 98 8 93 5 -6 26 -49 47
-97 21 -49 44 -88 52 -88 7 0 28 33 46 73 18 39 38 83 44 97 10 21 12 7 12
-82 1 -93 -1 -107 -16 -111 -10 -3 9 -5 42 -5 33 0 52 2 43 5 -16 4 -18 19
-18 128 0 109 2 124 18 128 9 3 -3 5 -27 4 l-45 -2 -40 -92 c-23 -50 -44 -94
-47 -97 -3 -4 -25 39 -48 94 l-43 100 -42 -1 c-22 -1 -33 -3 -23 -6z"/>
<path d="M3010 833 c-28 -10 -59 -46 -71 -80 -15 -46 -3 -117 24 -149 28 -32
95 -48 146 -34 58 15 84 50 89 119 5 69 -14 113 -58 136 -28 15 -100 19 -130
8z m118 -37 c12 -12 25 -38 29 -58 20 -124 -72 -204 -148 -129 -25 26 -29 37
-29 88 0 67 15 102 50 120 31 16 68 8 98 -21z"/>
<path d="M3278 830 c21 -9 22 -14 22 -129 0 -105 -2 -120 -17 -124 -10 -3 2
-5 27 -5 25 0 37 2 28 5 -16 4 -18 18 -18 114 0 60 2 109 4 109 3 0 39 -52 82
-115 43 -63 84 -115 91 -115 10 0 13 28 13 125 0 108 2 125 18 134 13 8 8 10
-27 11 -39 0 -42 -2 -28 -13 15 -10 17 -27 15 -105 l-3 -93 -70 105 -70 105
-45 0 c-37 0 -41 -2 -22 -9z"/>
<path d="M3611 803 c1 -33 2 -34 8 -13 5 20 14 26 44 28 l37 3 0 -120 c0 -105
-2 -120 -17 -124 -10 -3 9 -5 42 -5 45 -1 54 1 38 8 -22 9 -23 14 -23 125 l0
115 35 0 c31 0 38 -5 50 -32 l14 -33 1 43 0 42 -115 0 -115 0 1 -37z"/>
<path d="M377 736 c-50 -19 -102 -60 -138 -109 -30 -41 -60 -124 -58 -161 0
-12 7 0 14 26 36 131 140 218 261 218 48 0 153 -35 207 -70 40 -25 50 -28 67
-18 26 17 25 20 -8 45 -74 55 -135 76 -222 80 -56 2 -98 -1 -123 -11z"/>
<path d="M425 674 c-127 -32 -191 -104 -202 -225 -8 -85 -4 -90 54 -75 l48 12
-3 70 c-3 80 16 122 69 150 41 21 149 15 203 -11 42 -20 98 -71 117 -106 10
-20 9 -21 -7 -14 -11 4 -70 10 -133 13 l-113 5 7 -24 c22 -74 81 -117 163
-118 23 -1 32 -6 32 -18 1 -10 5 -49 10 -88 5 -38 7 -71 6 -72 -2 -2 -65 31
-142 74 -126 69 -145 77 -205 81 -104 7 -135 -17 -214 -163 l-38 -70 64 61
c88 84 105 94 164 94 62 0 99 -18 315 -148 91 -55 166 -99 168 -97 1 1 -19 88
-44 193 l-46 192 -30 0 c-43 0 -116 20 -129 36 -10 12 2 14 74 14 56 0 88 -4
94 -12 6 -7 18 -39 28 -70 10 -32 23 -58 30 -58 19 0 -10 194 -35 236 -31 49
-96 101 -149 119 -53 17 -127 26 -156 19z"/>
<path d="M1737 413 c381 -2 1005 -2 1386 0 380 1 69 2 -693 2 -762 0 -1073 -1
-693 -2z"/>
<path d="M1071 236 c-20 -24 -9 -48 34 -70 46 -24 56 -50 25 -66 -17 -9 -26
-8 -46 5 -13 8 -24 11 -24 6 0 -18 55 -32 83 -22 50 19 32 70 -36 99 -19 8
-27 18 -25 30 4 23 45 27 69 6 18 -16 19 -16 19 2 0 15 -8 20 -44 22 -29 2
-47 -2 -55 -12z"/>
<path d="M1218 241 c10 -6 13 -28 10 -80 l-3 -71 51 0 c40 0 53 4 59 18 5 14
4 15 -6 4 -7 -6 -28 -12 -46 -12 -31 0 -33 2 -33 35 0 30 3 35 24 35 13 0 27
-6 29 -12 3 -7 5 1 5 17 0 17 -2 24 -5 18 -2 -7 -16 -13 -29 -13 -20 0 -24 5
-24 30 0 27 3 30 34 30 19 0 37 -6 39 -12 3 -8 6 -6 6 5 1 14 -8 17 -61 17
-39 0 -58 -4 -50 -9z"/>
<path d="M1400 230 c-26 -26 -28 -100 -2 -123 31 -28 66 -30 93 -7 l24 22 -25
-16 c-32 -21 -46 -20 -70 4 -24 24 -26 77 -4 108 18 26 56 29 78 6 15 -14 16
-14 16 3 0 28 -82 31 -110 3z"/>
<path d="M1575 225 c-62 -61 6 -167 88 -136 78 30 54 161 -29 161 -24 0 -43
-8 -59 -25z m94 2 c49 -60 -5 -162 -65 -122 -19 12 -24 24 -24 60 0 26 6 50
16 59 19 20 58 21 73 3z"/>
<path d="M1758 241 c10 -6 13 -28 10 -80 -1 -39 0 -71 4 -71 4 0 8 30 10 67
l3 67 44 -67 c24 -37 47 -67 52 -67 5 0 9 33 9 74 0 50 4 76 13 79 6 3 -1 5
-18 5 -16 0 -24 -2 -17 -5 8 -3 12 -26 12 -66 l0 -62 -45 68 c-34 49 -51 67
-68 67 -16 0 -18 -3 -9 -9z"/>
<path d="M1948 243 c8 -3 12 -29 12 -79 l0 -74 43 0 c56 0 77 17 84 67 5 35 2
45 -20 67 -22 22 -35 26 -79 25 -29 0 -47 -3 -40 -6z m96 -19 c19 -18 22 -94
4 -112 -7 -7 -25 -12 -40 -12 -28 0 -28 1 -28 63 0 35 3 67 7 70 11 12 41 7
57 -9z"/>
<path d="M2171 208 c-10 -24 -22 -54 -26 -68 -4 -14 -12 -31 -17 -37 -8 -9 -6
-13 6 -13 9 0 16 8 16 20 0 17 7 20 40 20 33 0 40 -3 40 -20 0 -14 7 -20 21
-20 16 0 19 3 12 13 -5 6 -20 40 -33 75 -12 34 -27 65 -31 68 -5 3 -17 -14
-28 -38z m33 -20 c10 -38 7 -48 -14 -48 -11 0 -20 6 -20 13 0 23 12 57 20 57
4 0 10 -10 14 -22z"/>
<path d="M2318 241 c10 -6 13 -28 10 -80 -2 -52 0 -71 10 -71 7 0 12 13 12 31
0 26 3 30 22 27 14 -2 24 -12 28 -28 3 -14 14 -26 24 -28 16 -4 16 -2 1 27
-14 28 -14 33 1 56 15 23 15 27 0 50 -14 21 -24 25 -69 25 -32 0 -47 -4 -39
-9z m90 -35 c4 -30 -10 -46 -40 -46 -14 0 -18 9 -18 41 0 38 1 40 28 37 21 -2
28 -9 30 -32z"/>
<path d="M2482 233 c27 -31 48 -81 48 -113 0 -18 5 -30 13 -30 9 0 12 9 9 29
-4 27 35 105 62 123 6 4 -2 8 -19 8 -17 0 -25 -3 -18 -8 9 -5 7 -16 -9 -40
-11 -17 -22 -32 -24 -32 -9 0 -34 62 -29 70 3 6 -6 10 -21 10 -25 0 -26 -1
-12 -17z"/>
<path d="M2786 235 c-9 -9 -16 -20 -16 -25 0 -11 46 -48 71 -55 27 -9 25 -49
-3 -63 -17 -8 -18 -11 -7 -11 9 -1 27 7 39 17 31 25 19 57 -31 83 -27 13 -39
26 -37 37 5 24 49 28 65 6 12 -17 13 -17 13 2 0 16 -7 21 -39 22 -25 2 -45 -3
-55 -13z"/>
<path d="M2952 227 c-41 -44 -22 -127 32 -141 28 -7 76 8 76 24 0 6 -10 4 -24
-5 -55 -37 -111 40 -75 104 18 33 67 41 86 15 11 -15 13 -15 13 -2 0 35 -77
38 -108 5z"/>
<path d="M3108 243 c8 -3 12 -29 12 -79 0 -52 4 -74 13 -74 7 0 12 14 12 37 0
38 0 38 44 41 l43 3 -4 -40 c-2 -29 0 -41 9 -41 9 0 13 21 13 74 0 50 4 76 13
79 6 3 -4 5 -23 5 -19 0 -29 -2 -22 -5 6 -2 12 -18 12 -34 0 -28 -2 -29 -45
-29 -43 0 -45 1 -45 29 0 16 6 32 13 34 6 3 -4 5 -23 5 -19 0 -29 -2 -22 -5z"/>
<path d="M3330 230 c-28 -28 -28 -100 0 -125 27 -24 83 -24 110 0 14 13 20 30
20 62 0 54 -26 83 -75 83 -22 0 -43 -8 -55 -20z m94 -12 c33 -46 7 -128 -39
-128 -28 0 -55 38 -55 77 0 66 61 99 94 51z"/>
<path d="M3533 235 c-50 -35 -36 -126 22 -145 82 -27 140 63 84 134 -24 30
-71 35 -106 11z m85 -8 c33 -39 20 -120 -21 -131 -12 -3 -32 1 -44 10 -18 11
-23 24 -23 59 0 26 6 50 16 59 19 19 58 21 72 3z"/>
<path d="M3708 241 c10 -6 13 -28 10 -80 l-3 -71 53 0 c43 0 52 3 51 18 0 10
-3 12 -6 5 -2 -7 -20 -13 -39 -13 l-34 0 0 69 c0 46 4 71 13 74 6 3 -4 6 -23
6 -23 0 -30 -2 -22 -8z"/>
<path d="M2770 115 c0 -14 7 -21 22 -22 16 -2 19 0 9 6 -7 5 -17 15 -22 22 -7
11 -9 9 -9 -6z"/>
</g>
</svg>
