<?xml version="1.0" standalone="no"?>
<!DOCTYPE svg PUBLIC "-//W3C//DTD SVG 20010904//EN"
 "http://www.w3.org/TR/2001/REC-SVG-20010904/DTD/svg10.dtd">
<svg version="1.0" xmlns="http://www.w3.org/2000/svg"
 width="3600.000000pt" height="1032.000000pt" viewBox="0 0 3600.000000 1032.000000"
 preserveAspectRatio="xMidYMid meet">

<g transform="translate(0.000000,1032.000000) scale(0.100000,-0.100000)"
fill="#000000" stroke="none">
<path d="M4550 9580 c-638 -48 -1165 -189 -1751 -467 -396 -188 -741 -447
-1053 -788 -568 -622 -897 -1340 -977 -2130 -17 -170 -14 -510 5 -695 9 -85
35 -285 57 -445 55 -401 68 -528 75 -770 7 -223 -6 -489 -32 -679 -35 -252
-146 -739 -199 -878 -10 -27 0 -23 99 33 240 136 503 336 692 524 424 423 572
817 664 1770 11 116 32 266 46 334 115 570 513 1214 984 1590 141 113 369 262
515 338 308 158 591 243 955 285 173 19 639 16 820 -6 347 -42 526 -83 750
-173 541 -216 1054 -528 1376 -835 45 -43 84 -78 87 -78 3 0 326 169 719 376
392 207 735 387 761 400 l48 25 -57 82 c-147 210 -358 458 -578 679 -439 440
-893 769 -1418 1029 -540 266 -1067 413 -1683 470 -156 14 -757 20 -905 9z
m479 -1300 l129 -315 -181 -7 c-100 -4 -215 -8 -254 -10 -40 -2 -73 0 -73 4 0
10 229 638 238 652 4 7 7 7 9 0 2 -5 61 -151 132 -324z m895 -148 c16 -183 26
-335 24 -337 -2 -2 -52 11 -110 30 -59 18 -156 45 -215 60 -59 14 -121 29
-136 33 -28 7 -27 8 185 284 117 153 215 274 219 270 3 -4 18 -157 33 -340z
m-1783 48 c118 -155 215 -284 217 -289 1 -4 -60 -25 -135 -46 -76 -21 -183
-53 -238 -71 -54 -18 -101 -32 -103 -30 -6 7 32 725 38 721 3 -2 103 -130 221
-285z m2677 -365 c-38 -187 -71 -341 -73 -343 -2 -2 -33 15 -69 37 -93 57
-206 113 -309 151 -71 27 -85 36 -75 46 17 17 592 452 595 450 1 -1 -30 -154
-69 -341z m-3463 55 c160 -116 291 -215 293 -219 1 -4 -19 -17 -45 -30 -59
-28 -247 -140 -326 -193 -40 -27 -59 -35 -62 -26 -11 34 -175 678 -175 689 0
8 4 8 13 2 6 -6 143 -106 302 -223z m4185 -543 c-77 -158 -142 -287 -145 -287
-8 0 -335 282 -335 289 0 9 615 299 618 291 1 -3 -61 -135 -138 -293z m-4858
12 l327 -131 -137 -133 c-75 -73 -150 -151 -167 -174 -16 -22 -33 -41 -36 -41
-5 0 -309 559 -327 602 -2 4 0 8 5 8 4 0 155 -59 335 -131z m5443 -382 c-48
-32 -406 -239 -409 -236 -1 2 -24 30 -50 63 -25 32 -45 61 -42 63 5 5 483 120
506 122 10 1 8 -3 -5 -12z m-5935 -298 c162 -12 296 -22 298 -24 1 -1 -22 -42
-53 -91 -31 -49 -84 -144 -118 -211 -34 -68 -64 -123 -67 -123 -3 0 -115 108
-250 240 l-245 241 70 -5 c39 -3 203 -15 365 -27z m-120 -872 c-16 -76 -34
-184 -40 -240 -7 -56 -16 -107 -19 -113 -6 -10 -502 290 -512 310 -3 7 592
189 597 182 1 0 -11 -63 -26 -139z m-120 -871 c-20 -221 -25 -256 -39 -256 -5
0 -460 150 -500 165 -8 3 109 76 270 169 156 90 285 160 287 155 2 -4 -6 -110
-18 -233z m-90 -640 c0 -3 -15 -51 -34 -108 -42 -129 -84 -218 -102 -218 -23
0 -268 40 -272 45 -2 2 17 19 43 37 335 236 365 257 365 244z"/>
<path d="M16458 8143 c-81 -31 -149 -61 -151 -67 -3 -6 -193 -497 -422 -1091
-230 -594 -426 -1092 -436 -1107 -30 -42 -118 -80 -199 -86 l-70 -5 0 -53 0
-54 400 0 400 0 0 55 0 55 -62 0 c-106 1 -178 47 -178 115 0 16 39 135 87 263
l86 232 483 0 c450 0 482 -1 489 -17 56 -145 149 -410 158 -449 20 -98 -14
-135 -135 -142 l-78 -5 0 -53 0 -54 480 0 480 0 0 54 0 53 -74 5 c-87 6 -152
38 -184 90 -11 18 -219 547 -463 1176 -244 628 -448 1142 -454 1142 -5 -1 -76
-26 -157 -57z m140 -973 c101 -278 192 -529 202 -557 l19 -53 -423 0 -424 0
209 558 c115 306 212 564 215 572 6 13 7 13 12 0 3 -8 88 -242 190 -520z"/>
<path d="M11035 8169 c-261 -34 -474 -131 -643 -293 -222 -213 -334 -502 -349
-896 -21 -580 184 -1008 576 -1204 153 -77 282 -110 487 -125 531 -40 943 172
1075 556 29 84 30 83 -57 83 l-75 0 -21 -47 c-37 -84 -97 -170 -159 -227 -231
-214 -674 -270 -959 -120 -211 110 -350 334 -417 669 -26 129 -26 551 0 677
101 497 394 767 833 768 362 0 621 -174 690 -465 l18 -75 58 0 58 0 0 345 0
345 -69 0 -69 0 -4 -90 c-4 -108 -14 -124 -61 -96 -182 108 -336 167 -494 191
-106 16 -307 18 -418 4z"/>
<path d="M28106 8165 c-274 -39 -487 -137 -650 -300 -208 -209 -315 -491 -333
-875 -16 -367 69 -696 239 -921 215 -286 530 -420 988 -420 425 -1 703 99 926
334 167 176 257 375 300 671 23 153 15 478 -15 616 -107 496 -391 784 -871
881 -129 27 -445 34 -584 14z m335 -155 c364 -35 594 -270 688 -703 57 -263
49 -629 -20 -874 -71 -257 -218 -454 -403 -543 -177 -84 -414 -99 -606 -39
-249 79 -423 293 -504 621 -38 157 -49 286 -43 513 4 159 10 223 30 315 45
211 122 376 232 498 102 113 267 193 435 211 41 5 80 9 85 9 6 1 53 -3 106 -8z"/>
<path d="M12727 8143 c-4 -3 -7 -27 -7 -53 l0 -47 98 -5 c109 -7 158 -23 190
-63 l22 -28 0 -1031 c0 -799 -3 -1036 -13 -1055 -24 -48 -72 -65 -189 -70
l-108 -3 0 -54 0 -54 990 0 990 0 0 21 c0 21 45 516 55 607 l6 52 -58 0 -59 0
-12 -67 c-22 -132 -91 -304 -148 -372 -14 -18 -45 -42 -68 -54 -40 -22 -48
-22 -441 -22 -380 0 -402 1 -439 20 -22 11 -49 33 -60 48 -21 28 -21 36 -24
1020 -2 930 -1 994 15 1026 27 52 75 72 193 78 l100 6 0 53 0 54 -513 0 c-283
0 -517 -3 -520 -7z"/>
<path d="M18210 8096 l0 -53 99 -6 c113 -6 164 -25 192 -71 18 -30 19 -71 19
-1054 0 -1129 4 -1064 -63 -1099 -22 -11 -65 -18 -139 -21 l-108 -5 0 -53 0
-54 520 0 520 0 0 54 0 54 -102 4 c-117 4 -170 23 -193 69 -12 23 -15 98 -15
434 l0 405 243 0 243 0 30 -32 c75 -80 95 -131 168 -427 30 -119 64 -242 76
-274 30 -79 96 -175 148 -214 76 -57 122 -66 370 -71 l222 -4 0 56 c0 47 -3
56 -18 56 -10 0 -42 7 -72 16 -122 36 -210 170 -290 438 -78 262 -124 361
-200 430 -29 25 -56 46 -61 46 -20 0 -7 18 18 25 15 3 61 23 103 43 144 70
242 197 292 379 18 65 22 106 22 253 1 155 -2 184 -22 255 -37 129 -78 202
-157 280 -113 114 -242 164 -472 184 -66 6 -398 11 -745 11 l-628 0 0 -54z
m1322 -136 c125 -39 216 -133 258 -266 28 -93 41 -254 30 -372 -26 -268 -135
-413 -340 -452 -29 -5 -162 -10 -296 -10 l-244 0 0 560 0 560 264 0 c235 0
271 -2 328 -20z"/>
<path d="M20940 8096 l0 -53 93 -6 c105 -6 168 -27 194 -65 17 -26 18 -80 18
-1064 l0 -1037 -28 -29 c-36 -37 -92 -52 -196 -52 l-81 0 0 -55 0 -55 980 0
c927 0 980 1 980 18 0 9 14 152 30 317 16 165 30 303 30 308 0 4 -24 7 -54 7
l-53 0 -13 -77 c-32 -203 -100 -330 -204 -386 -40 -22 -50 -22 -503 -25 l-463
-3 0 526 0 525 318 0 c301 0 319 -1 350 -20 50 -30 76 -101 97 -262 l6 -48 45
0 44 0 0 415 0 415 -44 0 -43 0 -17 -107 c-19 -125 -43 -181 -88 -208 -31 -19
-55 -20 -350 -23 l-318 -3 0 465 0 466 433 0 433 0 52 -26 c56 -28 101 -73
132 -134 25 -48 57 -167 66 -242 l6 -58 54 0 54 0 0 315 0 315 -980 0 -980 0
0 -54z"/>
<path d="M23490 8097 l0 -54 93 -6 c106 -6 154 -22 185 -62 l22 -28 0 -1039 0
-1040 -28 -28 c-37 -36 -88 -50 -189 -50 l-83 0 0 -55 0 -55 405 0 405 0 0 54
0 54 -107 4 c-77 3 -117 9 -140 21 -67 35 -63 -22 -61 1015 l3 939 400 -909
400 -908 126 0 126 0 403 908 c221 499 406 911 411 917 5 5 9 -382 9 -934 0
-1051 4 -992 -68 -1027 -26 -13 -69 -19 -139 -22 l-103 -4 0 -54 0 -54 520 0
520 0 0 54 0 54 -107 4 c-77 3 -117 9 -140 21 -67 35 -63 -30 -63 1105 l0
1029 22 28 c32 40 81 56 191 63 l98 5 -3 51 -3 51 -389 0 -389 0 -397 -908
c-219 -500 -401 -908 -405 -908 -5 0 -185 408 -401 908 l-392 908 -366 3 -366
2 0 -53z"/>
<path d="M30120 8097 l0 -54 93 -6 c50 -3 111 -13 134 -22 79 -32 73 59 73
-1108 l0 -1043 -27 -26 c-37 -34 -90 -48 -190 -48 l-83 0 0 -55 0 -55 405 0
405 0 0 54 0 54 -102 4 c-71 3 -114 9 -140 22 -72 35 -68 -31 -66 1080 l3 997
750 -1106 750 -1105 123 0 122 0 0 1135 c0 1270 -6 1168 73 1200 23 9 84 19
135 22 l92 6 0 53 0 54 -405 0 -405 0 0 -54 0 -53 100 -6 c114 -6 164 -25 193
-74 16 -28 17 -85 15 -887 l-3 -857 -646 963 -646 963 -376 3 -377 2 0 -53z"/>
<path d="M33200 7790 l0 -360 54 0 53 0 6 88 c7 98 49 276 79 337 11 22 32 53
47 68 51 56 58 57 346 57 l265 0 0 -1045 c0 -1154 4 -1087 -63 -1122 -23 -12
-63 -18 -139 -21 l-108 -4 0 -54 0 -54 520 0 520 0 0 54 0 54 -102 4 c-71 3
-114 9 -140 22 -72 35 -68 -35 -68 1125 l0 1041 265 0 c293 0 297 -1 352 -64
54 -61 106 -237 119 -403 l7 -83 53 0 54 0 0 360 0 360 -1060 0 -1060 0 0
-360z"/>
<path d="M4810 7359 c-416 -25 -817 -140 -1150 -331 -332 -190 -647 -486 -873
-819 -287 -424 -466 -963 -484 -1456 l-6 -163 32 0 c17 0 31 3 31 8 0 26 54
362 71 440 27 124 88 315 145 449 334 798 1009 1329 1854 1459 175 27 497 25
700 -5 612 -91 1271 -379 1858 -813 l94 -69 116 89 c65 49 152 116 194 148
l78 59 -47 40 c-330 285 -866 610 -1273 773 -254 102 -589 169 -950 192 -179
11 -203 11 -390 -1z"/>
<path d="M4585 6654 c-630 -78 -1060 -296 -1410 -715 -193 -231 -372 -573
-449 -859 -53 -199 -82 -513 -73 -790 6 -177 39 -456 56 -473 5 -5 197 42 427
103 575 153 527 138 520 163 -19 66 -68 330 -82 442 -24 181 -24 534 -1 667
47 266 144 448 338 633 183 175 377 268 664 319 631 113 1400 -90 1913 -506
233 -188 467 -477 607 -749 51 -99 54 -111 23 -82 -67 61 -227 114 -418 137
-159 20 -773 29 -1385 20 l-505 -7 6 -26 c49 -219 87 -337 159 -487 85 -179
178 -306 289 -392 78 -62 114 -82 239 -136 303 -131 648 -214 933 -223 l150
-5 92 -791 c50 -435 90 -793 88 -794 -2 -2 -533 284 -1180 637 -647 352 -1204
654 -1238 671 -134 68 -374 132 -598 161 -131 16 -459 14 -595 -5 -280 -39
-512 -164 -750 -402 -222 -222 -285 -318 -688 -1050 -178 -324 -353 -636 -387
-693 -34 -57 -61 -105 -59 -107 2 -2 128 125 279 282 632 655 797 805 1115
1016 303 201 498 258 830 244 232 -10 469 -70 740 -186 153 -66 305 -150 547
-303 434 -274 1162 -713 2123 -1280 875 -516 897 -529 891 -510 -3 9 -193 811
-422 1782 -230 971 -418 1766 -419 1767 0 1 -75 -3 -165 -8 -293 -17 -641 15
-860 77 -172 50 -342 150 -420 249 -35 44 -74 114 -67 121 2 3 316 5 698 7
l694 2 67 -33 c81 -40 159 -120 210 -218 20 -38 66 -166 102 -284 66 -217 177
-552 236 -712 l32 -88 92 0 92 0 -97 813 c-53 446 -105 841 -114 877 -27 103
-83 246 -143 364 -227 447 -625 823 -1137 1076 -302 150 -544 225 -879 276
-148 23 -558 27 -711 8z"/>
<path d="M10077 4293 c-4 -3 -7 -30 -7 -60 l0 -53 12520 0 12521 0 -3 58 -3
57 -12511 3 c-6881 1 -12514 -1 -12517 -5z"/>
<path d="M10585 2820 c-172 -27 -285 -100 -336 -215 -34 -76 -32 -193 4 -267
46 -93 125 -159 284 -234 76 -36 188 -90 248 -119 125 -59 202 -122 235 -191
19 -38 22 -58 18 -117 -8 -119 -53 -182 -168 -236 -80 -37 -237 -42 -329 -11
-144 48 -255 158 -276 273 -6 33 -11 37 -36 37 l-29 0 0 -200 0 -200 35 0 35
0 0 53 c0 80 10 83 104 33 133 -72 216 -97 336 -103 240 -11 423 74 503 236
30 61 32 73 32 166 0 87 -3 107 -27 157 -35 75 -106 150 -188 198 -36 22 -143
73 -239 115 -251 109 -303 143 -342 230 -49 108 -2 217 118 277 64 31 73 33
178 33 103 0 114 -2 177 -32 36 -17 85 -50 108 -73 41 -41 90 -129 90 -162 0
-34 12 -48 41 -48 l29 0 0 200 0 200 -40 0 -40 0 0 -55 c0 -32 -4 -55 -11 -55
-5 0 -47 18 -92 39 -45 21 -107 46 -137 55 -69 20 -206 28 -285 16z"/>
<path d="M13659 2819 c-268 -35 -467 -209 -540 -474 -41 -152 -41 -398 0 -550
50 -182 162 -329 304 -398 119 -59 182 -71 352 -71 138 0 157 2 230 28 99 34
158 71 224 141 49 52 82 110 101 176 8 29 8 29 -33 29 -40 0 -43 -2 -61 -46
-41 -99 -156 -191 -290 -229 -82 -24 -259 -17 -336 13 -150 59 -250 196 -298
407 -24 109 -21 367 7 469 57 212 163 341 328 398 95 32 271 32 354 0 142 -56
214 -138 244 -275 5 -24 10 -28 33 -25 l27 3 0 200 0 200 -37 3 -38 3 0 -60
c0 -33 -3 -62 -8 -65 -4 -2 -36 13 -70 34 -139 83 -304 113 -493 89z"/>
<path d="M15290 2824 c-266 -33 -446 -152 -541 -360 -83 -181 -98 -457 -38
-675 63 -226 226 -387 449 -443 91 -24 269 -31 370 -17 202 30 348 116 447
264 86 128 123 275 123 487 0 251 -62 424 -199 561 -85 85 -160 127 -287 159
-75 19 -254 32 -324 24z m206 -95 c178 -33 316 -176 369 -383 45 -179 39 -427
-15 -588 -79 -237 -229 -348 -468 -348 -304 0 -480 216 -498 610 -18 382 121
643 374 704 71 18 160 19 238 5z"/>
<path d="M20457 2802 l-67 -27 -29 -75 c-16 -41 -119 -311 -229 -600 -272
-713 -246 -653 -291 -678 -22 -13 -56 -22 -80 -22 -39 0 -41 -2 -41 -30 l0
-30 225 0 225 0 0 30 c0 29 -2 30 -44 30 -51 0 -96 30 -96 64 0 13 24 88 53
167 l54 144 294 3 295 2 51 -142 c69 -193 67 -181 42 -211 -17 -23 -28 -27
-70 -27 -48 0 -49 -1 -49 -30 l0 -30 265 0 265 0 0 30 c0 28 -2 30 -40 30 -43
0 -88 18 -110 44 -7 9 -130 323 -274 698 -143 375 -265 683 -271 684 -5 1 -40
-9 -78 -24z m112 -590 c67 -183 121 -337 121 -342 0 -6 -99 -10 -261 -10 -245
0 -261 1 -254 18 4 9 63 169 133 355 78 211 128 333 133 325 4 -8 62 -164 128
-346z"/>
<path d="M26072 2820 c-177 -25 -308 -111 -347 -229 -27 -81 -18 -200 20 -270
58 -106 145 -165 428 -290 274 -121 347 -193 347 -342 0 -90 -23 -142 -87
-199 -68 -60 -154 -83 -287 -78 -95 3 -109 6 -179 41 -116 57 -200 153 -222
255 -6 27 -11 32 -36 32 l-29 0 0 -200 0 -200 35 0 c35 0 35 0 35 46 0 25 5
54 10 65 10 18 17 16 122 -37 133 -67 232 -94 342 -94 219 1 402 93 473 239
25 51 28 66 28 166 0 100 -3 115 -27 166 -39 78 -135 167 -233 217 -44 22
-141 65 -215 97 -156 65 -207 93 -262 143 -55 49 -71 86 -71 157 0 116 74 195
211 224 230 48 440 -72 478 -274 5 -30 10 -35 35 -35 l29 0 0 200 0 200 -40 0
-40 0 0 -55 c0 -30 -4 -55 -9 -55 -4 0 -46 18 -92 39 -46 21 -105 46 -131 55
-58 19 -203 27 -286 16z"/>
<path d="M27682 2820 c-228 -32 -401 -149 -491 -331 -69 -141 -84 -216 -84
-419 0 -203 15 -278 85 -420 74 -152 209 -260 383 -305 163 -43 381 -27 520
39 124 58 224 173 251 289 6 26 5 27 -32 27 -38 0 -40 -2 -73 -65 -52 -102
-152 -177 -276 -210 -73 -19 -223 -19 -291 -1 -126 33 -228 122 -288 249 -52
111 -67 183 -73 357 -4 130 -2 171 15 252 54 260 205 418 430 450 101 15 218
1 297 -36 103 -47 185 -148 201 -245 6 -37 9 -41 35 -41 l29 0 0 205 0 205
-35 0 -35 0 0 -52 c0 -75 -10 -86 -48 -59 -46 32 -150 78 -216 96 -76 19 -222
26 -304 15z"/>
<path d="M31120 2824 c-234 -29 -404 -127 -504 -293 -140 -230 -149 -636 -20
-882 68 -129 180 -228 314 -277 187 -69 438 -68 621 1 185 70 308 212 369 427
33 115 39 361 12 493 -31 147 -86 253 -181 348 -86 86 -160 127 -285 159 -76
19 -255 32 -326 24z m206 -95 c178 -33 316 -176 369 -384 40 -157 40 -390 0
-547 -53 -201 -190 -345 -363 -378 -88 -18 -233 -8 -302 20 -152 60 -249 193
-298 405 -25 111 -22 365 6 479 41 163 124 291 231 354 93 54 231 74 357 51z"/>
<path d="M32865 2819 c-232 -31 -403 -146 -494 -330 -67 -137 -84 -216 -85
-409 0 -140 3 -179 22 -255 64 -255 225 -421 467 -482 110 -27 355 -24 460 5
234 67 379 218 447 467 19 69 22 106 21 260 0 153 -3 192 -21 259 -68 247
-225 407 -457 466 -89 23 -265 32 -360 19z m235 -89 c119 -23 221 -90 286
-187 79 -119 113 -262 114 -473 0 -165 -23 -288 -74 -394 -86 -179 -228 -266
-431 -266 -246 0 -404 131 -477 397 -30 108 -32 398 -5 516 25 105 87 226 147
287 107 106 274 152 440 120z"/>
<path d="M11567 2803 c-4 -3 -7 -16 -7 -29 0 -20 6 -22 70 -26 56 -3 75 -8 93
-26 l22 -23 3 -612 c2 -433 -1 -620 -9 -639 -14 -34 -29 -40 -109 -47 -62 -6
-65 -7 -68 -33 l-3 -28 565 0 c446 0 566 3 566 13 0 6 7 75 15 152 21 203 20
215 -10 215 -20 0 -25 -6 -30 -37 -24 -145 -74 -234 -143 -253 -21 -5 -154
-10 -304 -10 l-268 0 0 325 0 325 201 0 c124 0 208 -4 221 -11 26 -14 44 -60
53 -131 7 -52 10 -58 31 -58 l24 0 0 245 0 245 -23 0 c-20 0 -24 -7 -34 -74
-14 -84 -26 -110 -60 -125 -15 -7 -101 -11 -218 -11 l-195 0 0 285 0 285 273
0 c247 0 276 -2 307 -19 45 -24 78 -88 94 -182 11 -69 14 -74 39 -77 l27 -3 0
185 0 186 -558 0 c-307 0 -562 -3 -565 -7z"/>
<path d="M16420 2781 c0 -29 0 -29 69 -33 122 -7 111 61 111 -674 l0 -633 -22
-21 c-17 -16 -35 -20 -90 -20 l-68 0 0 -30 0 -30 235 0 235 0 0 30 0 30 -64 0
c-53 0 -70 4 -91 22 l-25 23 2 614 3 614 444 -667 444 -666 64 0 63 0 0 683
c0 793 -11 718 111 725 69 4 69 4 69 33 l0 29 -235 0 -235 0 0 -30 c0 -29 1
-30 50 -30 65 0 118 -22 125 -52 3 -13 4 -262 3 -553 l-3 -531 -394 598 -393
598 -204 0 -204 0 0 -29z"/>
<path d="M18190 2782 c0 -29 1 -30 64 -34 37 -2 74 -11 90 -21 l26 -17 0 -633
c0 -347 -4 -637 -8 -643 -15 -23 -52 -34 -111 -34 l-61 0 0 -31 0 -31 408 4
c387 4 411 6 482 27 201 60 324 185 388 392 30 97 46 256 38 384 -20 356 -163
560 -445 637 -70 19 -109 22 -473 26 l-398 4 0 -30z m842 -99 c170 -80 254
-255 265 -554 14 -367 -86 -599 -295 -680 -49 -19 -82 -23 -239 -27 l-183 -4
0 652 0 652 193 -4 c192 -3 192 -3 259 -35z"/>
<path d="M21487 2803 c-4 -3 -7 -17 -7 -30 0 -21 4 -23 54 -23 69 0 111 -15
125 -46 8 -18 11 -201 11 -638 0 -719 10 -658 -112 -666 -71 -5 -73 -6 -76
-32 l-3 -28 291 0 291 0 -3 28 c-3 26 -5 27 -76 32 -115 8 -112 -1 -112 301
l0 249 164 0 164 0 28 -32 c37 -45 49 -76 95 -252 46 -177 66 -222 119 -270
50 -45 92 -56 218 -56 l102 0 0 30 c0 24 -4 30 -21 30 -39 0 -91 33 -125 79
-23 32 -49 91 -80 191 -54 168 -84 232 -127 271 -28 26 -29 29 -11 35 136 46
209 130 240 273 38 181 -7 367 -112 459 -57 51 -127 78 -236 92 -90 11 -790
14 -801 3z m820 -117 c84 -46 126 -123 138 -253 13 -129 -25 -272 -87 -330
-13 -12 -46 -32 -73 -45 -45 -20 -70 -23 -232 -26 l-183 -4 0 347 0 347 193
-4 c190 -3 193 -3 244 -32z"/>
<path d="M22930 2780 c0 -28 3 -30 35 -30 40 0 82 -18 106 -46 9 -11 112 -184
228 -386 l211 -368 0 -250 0 -251 -25 -24 c-21 -22 -33 -25 -90 -25 l-65 0 0
-30 0 -30 286 0 285 0 -3 28 c-3 26 -5 27 -75 32 -112 8 -107 -5 -111 291 l-3
250 222 367 c122 202 232 378 243 391 27 30 76 51 121 51 34 0 36 2 33 28 l-3
27 -222 3 -223 2 0 -30 c0 -28 2 -30 40 -30 56 0 100 -24 100 -54 0 -14 -83
-163 -187 -335 l-186 -311 -174 315 c-131 236 -173 322 -169 339 7 28 45 46
96 46 38 0 40 2 40 30 l0 30 -255 0 -255 0 0 -30z"/>
<path d="M28660 2781 c0 -28 1 -28 70 -33 121 -9 110 59 110 -672 0 -347 -4
-636 -8 -642 -15 -23 -52 -34 -111 -34 l-61 0 0 -30 0 -30 285 0 285 0 0 30 0
30 -61 0 c-59 0 -96 11 -111 34 -4 6 -8 152 -8 324 l0 312 375 0 375 0 0 -310
0 -311 -25 -24 c-21 -22 -33 -25 -90 -25 l-65 0 0 -30 0 -30 286 0 285 0 -3
28 c-3 26 -5 27 -75 32 -118 8 -108 -57 -111 665 l-2 623 24 28 c21 25 32 29
95 32 71 4 72 5 69 31 l-3 26 -282 3 -283 2 0 -30 c0 -29 1 -30 49 -30 59 0
108 -16 121 -40 6 -11 10 -130 10 -284 l0 -266 -375 0 -375 0 0 275 0 275 26
17 c16 10 53 19 90 21 63 4 64 5 64 33 l0 29 -285 0 -285 0 0 -29z"/>
<path d="M34037 2803 c-4 -3 -7 -16 -7 -29 0 -20 6 -22 71 -26 63 -3 74 -7 95
-31 l24 -28 0 -618 c0 -724 10 -663 -112 -671 -71 -5 -73 -6 -76 -32 l-3 -28
563 0 564 0 13 147 c6 82 14 169 18 196 6 47 5 47 -23 47 -28 0 -30 -4 -46
-73 -10 -39 -32 -100 -49 -135 -47 -96 -49 -97 -329 -97 -254 0 -288 6 -309
51 -14 32 -16 1206 -1 1234 13 24 62 40 121 40 48 0 49 1 49 30 l0 30 -278 0
c-153 0 -282 -3 -285 -7z"/>
</g>
</svg>
