<?xml version="1.0" encoding="UTF-8"?>
<svg enable-background="new 0 0 100.625 42.875" version="1.1" viewBox="0 0 98.2 41.1" xml:space="preserve" xmlns="http://www.w3.org/2000/svg" xmlns:cc="http://creativecommons.org/ns#" xmlns:dc="http://purl.org/dc/elements/1.1/" xmlns:rdf="http://www.w3.org/1999/02/22-rdf-syntax-ns#"><title>London Drugs (Canada) logo</title><metadata><rdf:RDF><cc:Work rdf:about=""><dc:format>image/svg+xml</dc:format><dc:type rdf:resource="http://purl.org/dc/dcmitype/StillImage"/><dc:title>London Drugs (Canada) logo</dc:title></cc:Work></rdf:RDF></metadata>

<rect x="16.3" y="1.1" width="104" height="61.4" fill="none"/>

	<rect width="98.2" height="41.1" fill="none"/>
	
	<rect x="1.61" y="1.51" width="95.3" height="37.8" fill="#fff"/>
	<rect x="3" y="2.87" width="92.5" height="35.1" fill="#039" style="fill:#1e59ae"/><g transform="translate(-.909 -1.01)" clip-rule="evenodd" fill="#fff" fill-rule="evenodd">
	<path d="m84.4 26.2c-0.334-2.28-2.04-4.22-5.84-4.22-3.38 0-5.88 1.47-5.88 4.26 0 5.08 7.79 3.69 7.79 5.69 0 0.629-0.693 1.01-1.83 1.01-0.418 0-0.924-0.128-1.24-0.338-0.375-0.25-0.629-0.586-0.754-1.07h-4.26c0.082 2.41 2.43 4.45 6 4.45 3.76 0 6.38-1.51 6.38-4.58 0-4.83-7.83-3.59-7.83-5.58 0-0.463 0.461-0.755 1.41-0.755 0.463 0 0.84 0.082 1.18 0.251 0.334 0.169 0.564 0.42 0.605 0.88m-8.65 2.12h-6.08v2.88h1.95c-0.254 0.943-1.36 1.53-2.29 1.53-2.25 0-2.83-1.7-2.83-3.57 0-2.35 0.795-3.93 2.58-3.93 1.13 0 1.97 0.629 2.25 1.7h4.26c-0.586-3.27-3.17-4.95-6.46-4.95-4.37 0-7.07 2.92-7.07 7.18 0 4.66 3.09 6.82 6.59 6.82 2.12 0 3.32-0.757 4.07-1.62l0.17 1.32h2.87v-7.37zm-27.7 1.53c0 4.58 2.35 6.13 6.51 6.13 4.49 0 6.53-1.87 6.53-6.13v-7.49h-4.45v7.96c0 1.43-0.461 2.41-2.08 2.41-1.78 0-2.08-1.11-2.08-2.41v-7.96h-4.43zm-7.53 1.17c2.08 0 2.37 0.549 2.37 2.29 0 1.15 0.125 2.04 0.253 2.33h4.51v-0.419c-0.548 0-0.504-0.586-0.504-2.33 0-2.66-0.839-3-2.29-3.5 1.57-0.44 2.29-1.74 2.29-3.23 0-2.58-1.51-3.8-6-3.8h-6.4v13.3h4.45v-4.62h1.32zm-1.32-5.58h2.04c1.05 0 1.78 0.464 1.78 1.36 0 0.965-0.691 1.3-2.08 1.3h-1.74v-2.67zm-12.8 10.2c4.36 0 7.2-1.91 7.2-6.9 0-4.39-2.7-6.38-7.07-6.38h-5.96v13.3h5.84zm-1.38-10.2h0.839c2.37 0 3.29 0.755 3.29 3.51 0 2.54-1.13 3.57-3.21 3.57h-0.921v-7.07z"/>
	<path d="m82.6 6.93h-4.14v13h4.2v-4.11l-0.148-2.96 4.74 7.07h4.07v-13h-4.15v4.11l0.167 2.96m-17-7.45c-4.12 0-6.99 2.66-6.99 6.76 0 4.45 2.83 6.95 6.99 6.95 3.96 0 7.01-2.46 7.01-6.91 0-3.42-2.22-6.8-7.01-6.8zm-0.042 3.21c1.95-0.084 2.67 1.82 2.67 3.59 0 2.16-0.713 3.73-2.62 3.73-2.08 0-2.62-2.08-2.62-3.73 0-1.64 0.629-3.59 2.58-3.59zm-15.1 10.2c4.28 0 7.07-1.87 7.07-6.78 0-4.3-2.67-6.21-6.99-6.21h-5.84v13h5.75zm-1.37-9.95h0.819c2.33 0 3.25 0.711 3.25 3.42 0 2.46-1.13 3.48-3.17 3.48h-0.904v-6.9zm-14.5-3.04h-4.07v13h4.15v-4.11l-0.166-2.96 4.78 7.07h4.09v-13h-4.22v4.11l0.169 2.96-4.74-7.07zm-12-0.379c-4.13 0-7.01 2.66-7.01 6.76 0 4.45 2.83 6.95 7.01 6.95 3.95 0 6.99-2.46 6.99-6.91 0-3.42-2.2-6.8-6.99-6.8zm-0.041 3.21c1.95-0.084 2.66 1.82 2.66 3.59 0 2.16-0.711 3.73-2.62 3.73-2.08 0-2.62-2.08-2.62-3.73 0-1.64 0.629-3.59 2.58-3.59zm-7.14 10.2v-3.04h-5.98v-9.95h-4.39v13h10.4z"/>
	<path d="m86.9 24.1v-0.586h0.504c0.211 0 0.506 0 0.506 0.271 0 0.274-0.17 0.314-0.4 0.314m0.229 0.296c0.357-0.021 0.545-0.169 0.545-0.546 0-0.229-0.041-0.42-0.23-0.545-0.145-0.084-0.398-0.104-0.564-0.104h-1.01v2.08h0.42v-0.88h0.398l0.461 0.88h0.484l-0.504-0.88zm-0.46 1.4c-0.859 0-1.57-0.69-1.57-1.57 0-0.84 0.715-1.55 1.57-1.55s1.56 0.711 1.56 1.55c-1e-3 0.883-0.696 1.57-1.56 1.57zm0 0.38c1.07 0 1.93-0.881 1.93-1.95 0-1.05-0.859-1.93-1.93-1.93s-1.93 0.88-1.93 1.93c0 1.07 0.861 1.95 1.93 1.95z"/>
</g>
</svg>
